<svg xmlns="http://www.w3.org/2000/svg" width="24" height="24" fill="none" viewBox="0 0 24 24">
  <path stroke="currentColor" stroke-linecap="square" stroke-width="2" d="M2 10.5L2.00002 20.5C2.00003 21.3284 2.6716 22 3.50002 22H13.5C14.3285 22 15 21.3284 15 20.5L15 10.5C15 9.6716 14.3284 9.00003 13.5 9.00002L3.50001 9C2.67158 9 2 9.67158 2 10.5Z"/>
  <path stroke="currentColor" stroke-width="2" d="M15 15H20.5C21.3285 15 22 14.3284 22 13.5L22 3.50002C22 2.6716 21.3284 2.00003 20.5 2.00002L10.5 2C9.67158 2 9 2.67158 9 3.50001L9.00001 9"/>
</svg>
